<mxfile host="app.diagrams.net" modified="2024-04-20T07:00:32.510Z" agent="Mozilla/5.0 (Macintosh; Intel Mac OS X 10_15_7) AppleWebKit/537.36 (KHTML, like Gecko) Chrome/123.0.0.0 Safari/537.36" version="24.2.0" etag="p0ZZwxHGX1gV3z4Y79bx" type="github">
  <diagram name="第 1 页" id="U1i4wNGFF5gZaAPe6vKn">
    <mxGraphModel>
      <root>
        <mxCell id="0" />
        <mxCell id="1" parent="0" />
      </root>
    </mxGraphModel>
  </diagram>
</mxfile>
